<svg xmlns="http://www.w3.org/2000/svg" viewBox="0 0 48 48" width="48" height="48">
  <path fill="#6264A7" d="M38.8 9.6c0 2.2-1.8 4-4 4s-4-1.8-4-4 1.8-4 4-4 4 1.8 4 4z"/>
  <path fill="#6264A7" d="M40 16h-8.4c.3.6.4 1.3.4 2v10c0 3.3-2.7 6-6 6h-1.7c1.7 2 4.2 3.2 7 3.2h2.8c3.3 0 5.9-2.7 5.9-6V16z"/>
  <path fill="#6264A7" d="M22 6c3 0 5.4 2.4 5.4 5.4S25 16.8 22 16.8s-5.4-2.4-5.4-5.4S19 6 22 6z"/>
  <path fill="#6264A7" d="M28 18H8c-1.1 0-2 .9-2 2v10c0 4.4 3.6 8 8 8h6c4.4 0 8-3.6 8-8V20c0-1.1-.9-2-2-2z"/>
</svg>
